<?xml version="1.0" encoding="UTF-8" standalone="no"?>
<svg
   viewBox="0 0 72 26"
   fill="#fff"
   fill-rule="evenodd"
   stroke="#000"
   stroke-linecap="round"
   stroke-linejoin="round"
   version="1.1"
   id="svg9"
   sodipodi:docname="ThinkPad_Logo.svg"
   inkscape:version="1.1.1 (3bf5ae0d25, 2021-09-20, custom)"
   xmlns:inkscape="http://www.inkscape.org/namespaces/inkscape"
   xmlns:sodipodi="http://sodipodi.sourceforge.net/DTD/sodipodi-0.dtd"
   xmlns="http://www.w3.org/2000/svg"
   xmlns:svg="http://www.w3.org/2000/svg">
  <defs
     id="defs13" />
  <sodipodi:namedview
     id="namedview11"
     pagecolor="#505050"
     bordercolor="#ffffff"
     borderopacity="1"
     inkscape:pageshadow="0"
     inkscape:pageopacity="0"
     inkscape:pagecheckerboard="1"
     showgrid="false"
     inkscape:zoom="15.982762"
     inkscape:cx="36.601935"
     inkscape:cy="8.3214655"
     inkscape:window-width="1420"
     inkscape:window-height="802"
     inkscape:window-x="90"
     inkscape:window-y="168"
     inkscape:window-maximized="1"
     inkscape:current-layer="svg9" />
  <g
     id="use2"
     transform="translate(0.5,0.5)">
    <path
       d="m 9.457,0.75 v 3.022 h -3 v 20.12 H 3.022 V 3.773 H 0 V 0.75 Z m 4.16,5.624 h 0.065 c 0.455,-0.877 1.3,-1.3 2.145,-1.3 2.373,0 2.405,1.397 2.405,3.348 v 15.47 h -3.12 V 8.876 c 0,-0.52 -0.032,-1.138 -0.683,-1.138 -0.78,0 -0.813,0.618 -0.813,1.138 v 15.016 h -3.12 V 0.75 h 3.12 v 5.623 z m 6.11,17.518 V 5.3 h 3.12 v 18.6 h -3.12 z M 24.34,5.3 h 3.12 v 1.073 h 0.065 c 0.455,-0.877 1.3,-1.3 2.146,-1.3 2.373,0 2.405,1.397 2.405,3.348 v 15.47 h -3.12 V 8.876 c 0,-0.52 -0.032,-1.138 -0.683,-1.138 -0.78,0 -0.813,0.618 -0.813,1.138 v 15.016 h -3.12 z m 9.102,18.592 V 0.75 h 3.12 v 13.1 h 0.13 l 1.7,-8.548 h 3.12 L 39.724,13.688 41.6,23.892 H 38.414 L 36.7,14.1 h -0.13 v 9.783 h -3.12 z m 9.23,0 V 0.75 h 3.607 c 3.803,0 5.493,1.43 5.396,4.518 v 5.005 c 0.032,3.77 -1.886,4.94 -5.558,4.745 v 8.873 h -3.445 z m 3.445,-11.636 c 1.007,0 2.015,0.033 2.112,-1.04 V 5.724 c 0,-2.146 -0.747,-2.308 -2.112,-2.2 v 8.742 z M 60.97,23.892 H 58.044 C 57.85,23.492 57.85,23.047 57.85,22.624 h -0.065 c -0.65,1.072 -1.138,1.495 -2.438,1.495 -1.365,0 -2.112,-0.748 -2.112,-2.146 v -6.24 c 0,-3.77 4.518,-1.787 4.518,-6.532 0,-0.553 0.13,-1.853 -0.618,-1.853 -0.9,0 -0.747,1.495 -0.747,2.145 v 2.438 H 53.236 V 8.193 c 0,-1.917 1.495,-3.12 3.867,-3.12 2.372,0 3.868,1.203 3.868,3.12 v 15.7 z m -3.12,-9.62 c -0.878,0.52 -1.495,0.9 -1.495,1.885 v 4.68 c 0.064,0.4 0.324,0.65 0.747,0.617 0.423,-0.065 0.748,-0.325 0.748,-0.748 V 14.27 Z m 12.155,9.62 h -3.12 V 22.787 H 66.82 c -0.487,0.683 -1.3,1.333 -2.242,1.333 -1.203,0 -2.308,-0.65 -2.308,-2.178 V 7.25 c 0,-1.527 1.104,-2.178 2.308,-2.178 1.007,0 1.787,0.683 2.242,1.397 h 0.065 V 0.75 h 3.12 z M 65.4,20.316 c 0,0.975 0.357,1.138 0.747,1.138 0.39,0 0.748,-0.163 0.748,-1.138 V 8.876 c 0,-0.975 -0.358,-1.138 -0.748,-1.138 -0.39,0 -0.747,0.162 -0.747,1.138 z"
       fill="#000000"
       fill-rule="nonzero"
       stroke="none"
       id="path868"
       style="fill:#073642;fill-opacity:1" />
    <path
       id="circle870"
       style="fill:#dc322f;stroke:none;fill-opacity:1"
       d="m 23.25,2 a 2,2 0 0 1 -2,2 2,2 0 0 1 -2,-2 2,2 0 0 1 2,-2 2,2 0 0 1 2,2 z" />
  </g>
  <symbol
     id="A"
     overflow="visible">
    <path
       d="M9.457.75v3.022h-3v20.12H3.022V3.773H0V.75h9.457zm4.16 5.624h.065c.455-.877 1.3-1.3 2.145-1.3 2.373 0 2.405 1.397 2.405 3.348v15.47h-3.12V8.876c0-.52-.032-1.138-.683-1.138-.78 0-.813.618-.813 1.138v15.016h-3.12V.75h3.12v5.623zm6.11 17.518V5.3h3.12v18.6h-3.12zM24.34 5.3h3.12v1.073h.065c.455-.877 1.3-1.3 2.146-1.3 2.373 0 2.405 1.397 2.405 3.348v15.47h-3.12V8.876c0-.52-.032-1.138-.683-1.138-.78 0-.813.618-.813 1.138v15.016h-3.12V5.3zm9.102 18.592V.75h3.12v13.1h.13l1.7-8.548h3.12l-1.788 8.386L41.6 23.892h-3.186L36.7 14.1h-.13v9.783h-3.12zm9.23 0V.75h3.607c3.803 0 5.493 1.43 5.396 4.518v5.005c.032 3.77-1.886 4.94-5.558 4.745v8.873h-3.445zm3.445-11.636c1.007 0 2.015.033 2.112-1.04V5.724c0-2.146-.747-2.308-2.112-2.2v8.742zM60.97 23.892h-2.926c-.194-.4-.194-.845-.194-1.268h-.065c-.65 1.072-1.138 1.495-2.438 1.495-1.365 0-2.112-.748-2.112-2.146v-6.24c0-3.77 4.518-1.787 4.518-6.532 0-.553.13-1.853-.618-1.853-.9 0-.747 1.495-.747 2.145v2.438h-3.152V8.193c0-1.917 1.495-3.12 3.867-3.12s3.868 1.203 3.868 3.12v15.7zm-3.12-9.62c-.878.52-1.495.9-1.495 1.885v4.68c.064.4.324.65.747.617.423-.065.748-.325.748-.748V14.27zm12.155 9.62h-3.12v-1.105h-.065c-.487.683-1.3 1.333-2.242 1.333-1.203 0-2.308-.65-2.308-2.178V7.25c0-1.527 1.104-2.178 2.308-2.178 1.007 0 1.787.683 2.242 1.397h.065V.75h3.12v23.142zM65.4 20.316c0 .975.357 1.138.747 1.138s.748-.163.748-1.138V8.876c0-.975-.358-1.138-.748-1.138S65.4 7.9 65.4 8.876v11.44z"
       fill="#000"
       fill-rule="nonzero"
       stroke="none"
       id="path4" />
    <circle
       cx="21.25"
       cy="2"
       fill="#e32726"
       stroke="none"
       r="2"
       id="circle6" />
  </symbol>
</svg>
